<?xml version="1.0" encoding="utf-8"?>
<!-- Generator: Adobe Illustrator 24.0.0, SVG Export Plug-In . SVG Version: 6.00 Build 0)  -->
<svg version="1.1" id="Layer_1" xmlns="http://www.w3.org/2000/svg" xmlns:xlink="http://www.w3.org/1999/xlink" x="0px" y="0px"
	 viewBox="0 0 2000 2000" style="enable-background:new 0 0 2000 2000;" xml:space="preserve">
<style type="text/css">
	.st0{fill:#FFCF1E;}
	.st1{fill:#FFFFFF;}
	.st2{fill:#4F4E54;}
	.st3{fill:#FFAF8A;}
	.st4{fill:#E2815A;}
	.st5{fill:#BCBEC0;}
</style>
<g>
	<g>
		<path class="st0" d="M1328.69,434.49H671.31c-130.79,0-236.82,106.03-236.82,236.82v657.38c0,130.79,106.03,236.82,236.82,236.82
			h657.38c130.79,0,236.82-106.03,236.82-236.82V671.31C1565.51,540.52,1459.48,434.49,1328.69,434.49z"/>
		<path d="M539.43,800.27c0.88,0.74,1.29,1.51,1.23,2.31c-0.05,2-0.3,3.86-0.77,5.59c-1.1,3.8-3.1,7.12-6,9.98
			c-2.9,2.86-6.42,4.74-10.56,5.64c-2.99,0.65-5.92,0.7-8.78,0.15c-2.86-0.55-5.48-1.59-7.86-3.12c-2.38-1.53-4.42-3.48-6.11-5.85
			c-1.69-2.37-2.86-5.05-3.51-8.04l-4.7-21.56c-0.65-2.99-0.7-5.91-0.15-8.78s1.59-5.48,3.12-7.86c1.53-2.38,3.48-4.42,5.85-6.11
			c2.37-1.69,5.05-2.86,8.04-3.51c4.14-0.9,8.12-0.67,11.94,0.7c3.82,1.37,7.02,3.54,9.6,6.54c1.14,1.38,2.16,2.99,3.04,4.85
			c0.46,0.74,0.43,1.61-0.11,2.6c-0.54,0.99-1.47,1.6-2.81,1.83l-5.35,1.17c-1.38,0.3-2.4-0.07-3.05-1.12
			c-0.44-0.62-0.8-1.12-1.1-1.51c-0.29-0.38-0.65-0.75-1.06-1.11c-0.41-0.36-0.82-0.64-1.22-0.85c-1.11-0.65-2.28-1.11-3.51-1.38
			c-1.23-0.27-2.51-0.26-3.83,0.03c-1.32,0.29-2.5,0.82-3.54,1.58c-1.04,0.77-1.89,1.68-2.57,2.72c-0.67,1.05-1.14,2.22-1.4,3.51
			c-0.26,1.29-0.25,2.59,0.04,3.91l4.78,21.95c0.29,1.32,0.82,2.51,1.59,3.58c0.77,1.06,1.69,1.93,2.74,2.6
			c1.05,0.67,2.21,1.14,3.47,1.41c1.26,0.27,2.55,0.26,3.88-0.03c1.32-0.29,2.49-0.81,3.5-1.58c1.01-0.76,1.88-1.67,2.61-2.74
			c0.3-0.3,0.55-0.72,0.77-1.25c0.22-0.53,0.38-1.03,0.49-1.51c0.11-0.48,0.23-1.09,0.37-1.84c0.15-1.24,0.92-2.01,2.3-2.31
			l5.35-1.17C537.45,799.34,538.55,799.53,539.43,800.27z"/>
		<path d="M631.47,549.69c3.11,3.83,5.32,8,6.61,12.51c1.29,4.52,1.7,9.04,1.24,13.58c-0.47,4.54-1.79,8.89-3.97,13.05
			c-2.18,4.16-5.18,7.8-9.01,10.91l-27.59,22.46c-3.83,3.12-8,5.32-12.51,6.61c-4.52,1.29-9.05,1.7-13.58,1.24
			c-4.54-0.46-8.89-1.79-13.05-3.97c-4.16-2.18-7.8-5.18-10.91-9.01c-3.11-3.83-5.32-8-6.61-12.51c-1.29-4.52-1.7-9.04-1.24-13.58
			c0.46-4.54,1.79-8.89,3.97-13.05c2.18-4.16,5.18-7.8,9.01-10.91l27.59-22.46c3.82-3.11,8-5.31,12.51-6.61s9.04-1.7,13.58-1.24
			c4.54,0.46,8.89,1.79,13.05,3.97C624.72,542.86,628.36,545.86,631.47,549.69z M614.1,584.2c1.69-1.37,3.01-3,3.98-4.89
			c0.96-1.89,1.55-3.83,1.75-5.83c0.2-2,0.04-4.01-0.5-6.02c-0.54-2.01-1.5-3.86-2.87-5.55c-1.38-1.69-3-3.01-4.85-3.94
			c-1.86-0.93-3.79-1.5-5.79-1.71c-2-0.21-4.02-0.03-6.07,0.53c-2.05,0.56-3.91,1.53-5.6,2.91l-28.09,22.86
			c-1.69,1.38-3.02,3.01-3.98,4.89s-1.55,3.83-1.75,5.83c-0.2,2-0.04,4,0.5,6.01c0.54,2.01,1.49,3.86,2.87,5.55
			c1.38,1.69,2.99,3,4.85,3.94c1.86,0.93,3.79,1.51,5.79,1.71c2,0.21,4.02,0.03,6.07-0.53c2.04-0.56,3.91-1.53,5.6-2.91L614.1,584.2
			z"/>
		<path d="M868,638.04c0.79-0.79,1.74-1.4,2.83-1.83c1.09-0.43,2.2-0.63,3.32-0.6c1.12,0.03,2.04,0.57,2.77,1.61l17.91,25.86
			c0.28,0.4,0.66,0.67,1.13,0.83c0.48,0.16,0.96,0.14,1.45-0.05c1.04-0.41,1.5-1.16,1.39-2.26l-3.48-33.08
			c-0.05-0.61,0.19-1.17,0.72-1.66c0.53-0.5,1.1-0.86,1.7-1.1l5.67-2.24c0.66-0.26,1.3-0.26,1.94-0.01s1.09,0.71,1.35,1.37
			c0.11,0.27,0.15,0.48,0.14,0.61l6.64,61.26c-0.16,1.52-0.95,2.56-2.37,3.12l-5.25,2.08c-1.48,0.58-2.77,0.37-3.87-0.66
			l-14.82-19.49c-0.69-0.93-1.55-1.19-2.59-0.78c-1.04,0.41-1.49,1.19-1.35,2.34l2.5,24.36c-0.16,1.52-0.95,2.56-2.37,3.12
			l-5.25,2.08c-1.48,0.58-2.77,0.37-3.87-0.66L837.23,653c-0.1-0.09-0.2-0.27-0.31-0.54c-0.26-0.66-0.24-1.3,0.05-1.92
			c0.29-0.62,0.77-1.06,1.42-1.32l5.67-2.24c0.6-0.24,1.27-0.36,1.99-0.36c0.73,0,1.25,0.25,1.58,0.75l20.15,26.49
			c0.66,0.88,1.51,1.11,2.55,0.7c1.04-0.41,1.5-1.16,1.39-2.26l-4.64-31.2C866.9,639.85,867.21,638.83,868,638.04z"/>
		<path d="M1284.95,1448.07c3.31,1.3,6.27,3.21,8.9,5.73c2.62,2.52,4.65,5.57,6.07,9.15c1.36,3.43,1.99,6.88,1.89,10.34
			c-0.11,3.47-0.83,6.75-2.16,9.85c-1.33,3.1-3.24,5.89-5.72,8.36c-2.48,2.48-5.43,4.39-8.85,5.75l-28.56,11.36
			c-1.32,0.53-2.66,0.5-4.02-0.09c-1.36-0.59-2.3-1.54-2.83-2.87l-30.11-75.69c-0.56-1.4-0.55-2.78,0.04-4.14
			c0.58-1.36,1.54-2.3,2.86-2.83l27.63-10.99c3.34-1.33,6.76-1.95,10.27-1.85c3.5,0.1,6.8,0.81,9.9,2.15
			c3.1,1.34,5.87,3.23,8.34,5.68c2.46,2.45,4.35,5.35,5.69,8.7c1.33,3.35,1.95,6.71,1.85,10.09c-0.1,3.38-0.75,6.61-1.95,9.7
			c-0.14,0.33-0.15,0.65-0.03,0.96C1284.25,1447.67,1284.52,1447.88,1284.95,1448.07z M1245.22,1448.21
			c0.4,1.01,1.09,1.72,2.07,2.13c0.98,0.42,1.97,0.42,2.98,0.02l12.85-5.11c2.41-0.96,4.14-2.63,5.18-5.01
			c1.03-2.38,1.08-4.77,0.12-7.17c-0.95-2.4-2.62-4.08-4.99-5.07c-2.38-0.98-4.77-0.99-7.18-0.03l-12.85,5.11
			c-1.01,0.4-1.74,1.07-2.18,2.01c-0.44,0.94-0.46,1.91-0.06,2.91L1245.22,1448.21z M1277.59,1481.84c2.87-1.14,4.91-3.1,6.14-5.89
			c1.22-2.79,1.27-5.62,0.12-8.5c-1.15-2.88-3.13-4.93-5.95-6.16c-2.82-1.22-5.67-1.26-8.53-0.12l-12.21,4.86
			c-1.16,0.46-1.98,1.29-2.46,2.46c-0.47,1.18-0.48,2.35-0.01,3.52l4.83,12.15c0.46,1.17,1.27,2,2.41,2.49
			c1.14,0.49,2.29,0.51,3.45,0.05L1277.59,1481.84z"/>
		<path d="M1412.25,1337.42l17.57,36.22c0.59,1.22,1.37,2.25,2.33,3.09c0.97,0.84,2.04,1.46,3.22,1.87c1.18,0.41,2.42,0.58,3.7,0.51
			c1.28-0.07,2.54-0.4,3.76-0.99c1.22-0.59,2.26-1.37,3.1-2.34c0.84-0.96,1.47-2.04,1.89-3.22c0.41-1.18,0.59-2.41,0.53-3.69
			c-0.06-1.28-0.39-2.53-0.98-3.75l-17.57-36.22c-0.46-0.95-0.53-1.92-0.19-2.9c0.33-0.98,0.98-1.7,1.92-2.16l4.1-1.99
			c0.89-0.43,1.83-0.48,2.81-0.14s1.7,0.99,2.16,1.94l17.45,35.98c1.31,2.7,2.03,5.49,2.15,8.38c0.13,2.88-0.27,5.64-1.18,8.27
			c-0.91,2.63-2.3,5.04-4.18,7.23c-1.88,2.19-4.16,3.93-6.86,5.24c-2.7,1.31-5.48,2.02-8.36,2.14c-2.88,0.12-5.63-0.28-8.27-1.19
			c-2.63-0.91-5.04-2.31-7.23-4.2c-2.19-1.88-3.93-4.18-5.24-6.88l-17.45-35.98c-0.46-0.95-0.53-1.92-0.19-2.9
			c0.34-0.98,0.98-1.7,1.92-2.16l4.1-1.99c0.89-0.43,1.83-0.48,2.81-0.14C1411.06,1335.82,1411.79,1336.47,1412.25,1337.42z"/>
		<path d="M1396.06,1195.59c1,0.28,1.75,0.85,2.24,1.72l2.27,3.99c0.49,0.87,0.6,1.81,0.33,2.81c-0.28,1-0.85,1.75-1.72,2.24
			l-28.03,15.9c-0.87,0.49-1.81,0.6-2.81,0.33c-1-0.28-1.75-0.85-2.24-1.72l-28.27-49.83c-0.49-0.87-0.6-1.81-0.33-2.81
			c0.28-1,0.85-1.75,1.72-2.24l3.99-2.27c0.87-0.49,1.81-0.6,2.81-0.33c1,0.28,1.75,0.85,2.24,1.72l22.74,40.08
			c0.41,0.72,0.99,1.18,1.75,1.39c0.76,0.21,1.5,0.11,2.22-0.29l18.28-10.37C1394.12,1195.42,1395.06,1195.31,1396.06,1195.59z"/>
		<path d="M1528.64,1108.08c1.19,1.46,1.7,3.1,1.51,4.9l-0.84,8.28c-0.18,1.8-1,3.3-2.47,4.49c-1.46,1.19-3.09,1.7-4.9,1.51
			l-58.1-5.9c-1.81-0.18-3.3-1-4.49-2.47c-1.19-1.46-1.7-3.09-1.51-4.9l10.48-103.31c0.18-1.8,1-3.3,2.47-4.49
			c1.46-1.19,3.09-1.7,4.9-1.51l8.28,0.84c1.8,0.18,3.3,1,4.49,2.47c1.19,1.46,1.7,3.09,1.51,4.9l-8.43,83.09
			c-0.15,1.49,0.22,2.78,1.13,3.89c0.9,1.11,2.1,1.74,3.59,1.89l37.89,3.84C1525.95,1105.8,1527.44,1106.62,1528.64,1108.08z"/>
		<g>
			<g>
				<path class="st1" d="M1000,1370.31c-8.89,1.2-55.28,6.74-107.09,0.94c30.52,17.8,66.38,26.83,107.09,26.83
					c40.74,0,76.6-9.04,107.14-26.86c-17.16,1.92-33.75,2.64-48.55,2.64C1028.67,1373.86,1005.95,1371.11,1000,1370.31z"/>
				<path class="st2" d="M881.33,1173.04c-10.96-3.42-22.36-4.12-31.29-1.91c-7.3,1.8-12.27,5.35-13.64,9.75v0
					c-1.37,4.4,0.7,10.15,5.68,15.78c6.1,6.89,15.88,12.79,26.83,16.21c22.82,7.11,41.99,1.58,44.93-7.84
					c1.37-4.4-0.7-10.15-5.68-15.78C902.06,1182.37,892.28,1176.46,881.33,1173.04z"/>
				<path class="st2" d="M1149.96,1171.13c-3.43-0.85-7.22-1.26-11.22-1.26c-6.41,0-13.32,1.07-20.07,3.18
					c-10.96,3.42-20.74,9.33-26.83,16.21c-4.98,5.63-7.05,11.38-5.68,15.78c2.94,9.41,22.1,14.94,44.93,7.83
					c10.96-3.42,20.74-9.33,26.83-16.21c4.98-5.63,7.05-11.38,5.68-15.78C1162.23,1176.48,1157.26,1172.92,1149.96,1171.13z"/>
				<path class="st3" d="M1209.42,1137.85c-69.5-53.93-206.05-24.49-207.42-24.19c-1.32,0.29-2.69,0.29-4.02,0
					c-0.72-0.16-38.43-8.29-84.17-8.29c-41.71,0-90.1,6.76-123.25,32.48c-25.39,19.7-38.89,48.72-40.13,86.24
					c-1.21,36.71,10.25,66.14,34.08,87.46c67.65,60.57,212.7,40.43,214.15,40.21c0.88-0.12,1.77-0.13,2.65,0
					c1.46,0.22,146.63,20.28,214.18-40.24c23.81-21.33,35.27-50.75,34.05-87.44C1248.31,1186.57,1234.81,1157.55,1209.42,1137.85z
					 M931.54,1210.56c-4.75,15.24-21.7,24.06-42.67,24.06c-8.06,0-16.7-1.3-25.49-4.04c-14.3-4.46-26.8-12.14-35.19-21.62
					c-9.52-10.76-12.9-22.69-9.5-33.59c0,0,0,0,0,0c3.4-10.9,12.96-18.8,26.91-22.23c12.3-3.03,26.94-2.24,41.24,2.22
					c14.3,4.46,26.79,12.14,35.19,21.62C931.56,1187.72,934.94,1199.65,931.54,1210.56z M1171.81,1208.95
					c-8.4,9.48-20.89,17.16-35.19,21.62c-8.78,2.74-17.43,4.04-25.49,4.04c-20.97,0-37.91-8.82-42.67-24.06
					c-3.4-10.9-0.03-22.83,9.5-33.59c8.4-9.48,20.89-17.16,35.19-21.62c14.3-4.46,28.95-5.25,41.24-2.22
					c13.95,3.44,23.51,11.33,26.91,22.23c0,0,0,0,0,0C1184.7,1186.26,1181.33,1198.19,1171.81,1208.95z"/>
				<g>
					<path class="st4" d="M1249.55,1224.1c-0.11-3.28-0.34-6.48-0.64-9.63c-2.84,27.64-14.04,50.36-33.41,67.72
						c-67.55,60.51-212.71,40.45-214.18,40.24c-0.88-0.13-1.77-0.12-2.65,0c-1.45,0.22-146.5,20.35-214.15-40.21
						c-19.39-17.36-30.59-40.09-33.44-67.74c-0.3,3.15-0.53,6.35-0.64,9.63c-1.21,36.71,10.25,66.14,34.08,87.46
						c67.65,60.57,212.7,40.43,214.15,40.21c0.88-0.12,1.77-0.13,2.65,0c1.46,0.22,146.63,20.28,214.18-40.24
						C1239.31,1290.21,1250.77,1260.79,1249.55,1224.1z"/>
				</g>
				<path class="st2" d="M790.71,879.76c21.15-37.36,46.93-63.18,73.08-81.1c-41.54-3.81-112.42-17.45-139.23-65.9
					c-16.86-30.48-13.4-69.17,10.24-115.31c-24.52,16.46-57.62,45.63-69.61,88.55c-12.83,45.93,0.91,98,40.68,154.82
					C746.49,848.64,776.33,867.29,790.71,879.76z"/>
				<path class="st2" d="M1209.29,879.76c14.38-12.47,44.22-31.12,84.82-18.93c39.77-56.83,53.51-108.9,40.68-154.83
					c-11.99-42.91-45.08-72.09-69.6-88.55c23.64,46.14,27.1,84.83,10.24,115.31c-26.8,48.44-97.67,62.09-139.22,65.9
					C1162.36,816.58,1188.14,842.4,1209.29,879.76z"/>
				<path class="st1" d="M1295.26,880.87c-0.47-0.12-0.9-0.33-1.35-0.53c-49.02-18.07-78.17,18.65-79.54,20.43
					c-1.94,2.52-5.03,3.84-8.2,3.57c-3.17-0.29-5.96-2.19-7.4-5.02c-26.65-52.2-62.03-82.2-95.51-99.41
					c-1.76-0.33-3.32-1.15-4.58-2.31c-50.01-24.14-94.63-20.29-97.74-19.97c-0.62,0.06-1.26,0.06-1.88,0
					c-3.1-0.3-47.73-4.15-97.76,20c-1.24,1.14-2.79,1.96-4.52,2.28c-33.49,17.21-68.89,47.2-95.54,99.42
					c-1.44,2.83-4.24,4.72-7.4,5.02c-3.16,0.28-6.26-1.06-8.2-3.57c-1.37-1.75-30.87-38.35-79.74-20.33
					c-0.35,0.15-0.69,0.31-1.05,0.41c-6.22,2.38-12.73,5.59-19.55,9.92c-50.24,31.9-102.54,40.87-129.85,43.37
					c30.04,33.66,114.11,113.22,198.05,59.77c2.99-1.91,6.8-1.93,9.82-0.09c3.02,1.85,4.72,5.26,4.39,8.78
					c-0.06,0.62-5.3,57.89,2.73,128.13c2.8-2.62,5.71-5.17,8.8-7.57c72.41-56.14,202.3-31.86,220.76-28.04
					c18.46-3.82,148.35-28.11,220.76,28.04c3.1,2.4,6.01,4.94,8.8,7.57c8.03-70.24,2.79-127.51,2.73-128.13
					c-0.33-3.53,1.37-6.94,4.39-8.78s6.83-1.82,9.82,0.09c84.08,53.54,168.08-26.09,198.08-59.76
					c-27.31-2.5-79.62-11.46-129.88-43.37C1307.92,886.47,1301.44,883.26,1295.26,880.87z M760.35,951.59
					c-3.52,3.71-9.38,3.87-13.09,0.35c-1.1-1.03-24.96-22.98-46.85-10.02c-30.14,17.84-58.94,18.65-60.15,18.67
					c-0.07,0-0.13,0-0.2,0c-5.03,0-9.16-4.02-9.26-9.07c-0.11-5.12,3.95-9.36,9.07-9.47c0.23-0.01,25.33-0.84,51.1-16.09
					c34.03-20.14,67.64,11.18,69.05,12.52C763.73,942.01,763.88,947.88,760.35,951.59z M954.83,972.29
					c-3.58,3.67-9.45,3.74-13.11,0.16c-41.29-40.28-93.45-0.98-95.65,0.71c-1.68,1.29-3.67,1.92-5.65,1.92
					c-2.78,0-5.53-1.24-7.36-3.62c-3.12-4.06-2.36-9.88,1.7-13c23.05-17.73,77.77-40.4,119.9,0.71
					C958.34,962.75,958.41,968.62,954.83,972.29z M1166.93,971.47c-1.83,2.37-4.58,3.62-7.36,3.62c-1.97,0-3.95-0.62-5.64-1.91
					c-2.28-1.74-54.59-40.78-95.66-0.72c-3.66,3.58-9.53,3.51-13.11-0.16c-3.58-3.66-3.5-9.53,0.16-13.11
					c42.13-41.11,96.85-18.44,119.9-0.71C1169.29,961.59,1170.05,967.41,1166.93,971.47z M1369.19,951.55
					c-0.12,5.04-4.23,9.05-9.25,9.05c-0.07,0-0.13,0-0.2,0c-1.21-0.02-30.01-0.84-60.15-18.67c-22.12-13.09-46.59,9.77-46.84,10.01
					c-3.72,3.52-9.58,3.38-13.11-0.34c-3.53-3.71-3.37-9.58,0.34-13.11c1.41-1.35,35.02-32.67,69.05-12.52
					c25.77,15.25,50.88,16.09,51.13,16.09C1365.27,942.19,1369.31,946.44,1369.19,951.55z"/>
				<g>
					<path class="st5" d="M1246.5,965.29c-2.99-1.91-6.8-1.93-9.82-0.09c-3.02,1.85-4.72,5.26-4.39,8.78
						c0.02,0.24,0.8,8.75,1.3,23.07c0.76-1.28,1.77-2.42,3.09-3.23c3.02-1.85,6.83-1.82,9.82,0.09
						c84.08,53.54,168.08-26.09,198.08-59.76c-6.91-0.63-15.43-1.68-25.1-3.41C1379.8,966.46,1313.19,1007.76,1246.5,965.29z"/>
					<path class="st5" d="M767.7,973.99c0.33-3.53-1.37-6.94-4.39-8.78c-3.02-1.85-6.83-1.82-9.82,0.09
						c-66.58,42.39-133.2,1.12-172.92-34.56c-9.68,1.73-18.21,2.79-25.13,3.42c30.04,33.66,114.11,113.22,198.05,59.77
						c2.99-1.91,6.8-1.93,9.82-0.09c1.32,0.81,2.33,1.95,3.09,3.23C766.9,982.74,767.68,974.23,767.7,973.99z"/>
					<path class="st5" d="M1229.56,1102.12c-2.8-2.62-5.71-5.17-8.8-7.57c-72.41-56.15-202.3-31.86-220.76-28.04
						c-18.46-3.82-148.35-28.1-220.76,28.04c-3.1,2.4-6.01,4.94-8.8,7.57c-2.76-24.12-3.95-46.71-4.33-66
						c-0.46,23.45,0.05,57.19,4.33,94.63c2.8-2.62,5.71-5.17,8.8-7.57c72.41-56.14,202.3-31.86,220.76-28.04
						c18.46-3.82,148.35-28.11,220.76,28.04c3.1,2.4,6.01,4.94,8.8,7.57c4.28-37.43,4.79-71.17,4.33-94.63
						C1233.51,1055.41,1232.32,1078,1229.56,1102.12z"/>
				</g>
			</g>
			<g>
				<path d="M1471.8,921.59c-1.61-3.13-4.8-5.05-8.39-5.03c-0.68,0.1-72.53,0.62-138.77-41.43c-4.38-2.78-8.66-5.15-12.86-7.23
					c41.23-60.3,55-116.45,40.81-167.03c-22.37-79.76-105.53-115.3-109.06-116.77c-3.76-1.57-8.09-0.51-10.7,2.62
					c-2.61,3.13-2.87,7.59-0.65,11c34.71,53.28,43.8,95.69,27.01,126.05c-30.65,55.45-138.24,57.75-152.48,57.81
					c-52.22-25.08-99.48-22.97-106.73-22.45c-7.25-0.51-54.5-2.62-106.71,22.45c-14.44-0.09-121.88-2.41-152.5-57.8
					c-16.78-30.36-7.69-72.77,27.01-126.05c2.22-3.41,1.96-7.87-0.65-11c-2.6-3.12-6.94-4.19-10.7-2.62
					c-3.53,1.48-86.69,37.01-109.06,116.77c-14.18,50.57-0.42,106.72,40.81,167.02c-4.2,2.08-8.48,4.45-12.86,7.23
					c-64.06,40.68-133.76,41.44-138.52,41.44c-0.46,0-0.32,0-0.38,0c-3.47,0-6.67,1.94-8.25,5.04c-1.61,3.13-1.31,6.91,0.79,9.74
					c0.92,1.24,74.66,99.28,165.03,99.27c17.54,0,35.71-3.69,54.09-12.5c-1.2,25.15-1.93,74.97,6.07,131.55
					c-13.82,20.14-21.3,44.83-22.26,73.82c-1.4,42.45,12.14,76.74,40.24,101.9c21.8,19.52,50.1,31.48,79.33,38.65
					c39.41,34.88,89.34,52.6,148.52,52.6c59.2,0,109.14-17.73,148.56-52.63c29.21-7.17,57.5-19.1,79.29-38.61
					c28.11-25.16,41.65-59.44,40.24-101.9c-0.96-29-8.45-53.68-22.26-73.82c8-56.58,7.27-106.4,6.07-131.55
					c18.39,8.81,36.54,12.5,54.09,12.5c90.36-0.01,164.12-98.03,165.03-99.27C1473.11,928.51,1473.42,924.73,1471.8,921.59z
					 M1275.43,732.76c16.86-30.48,13.4-69.17-10.24-115.31c24.52,16.46,57.61,45.64,69.6,88.55c12.83,45.93-0.91,98-40.68,154.83
					c-40.6-12.19-70.44,6.46-84.82,18.93c-21.15-37.36-46.92-63.18-73.08-81.1C1177.75,794.85,1248.63,781.2,1275.43,732.76z
					 M665.21,706.01c11.99-42.92,45.09-72.1,69.61-88.55c-23.64,46.14-27.11,84.83-10.24,115.31c26.8,48.45,97.68,62.09,139.23,65.9
					c-26.16,17.92-51.94,43.74-73.08,81.1c-14.39-12.47-44.23-31.12-84.83-18.93C666.12,804,652.38,751.93,665.21,706.01z
					 M1000,1398.08c-40.72,0-76.57-9.03-107.09-26.83c51.81,5.8,98.21,0.26,107.09-0.94c5.95,0.8,28.68,3.55,58.58,3.55
					c14.81,0,31.39-0.72,48.55-2.64C1076.6,1389.04,1040.73,1398.08,1000,1398.08z M1215.5,1311.54
					c-67.55,60.51-212.71,40.45-214.18,40.24c-0.88-0.13-1.77-0.12-2.65,0c-1.45,0.22-146.5,20.35-214.15-40.21
					c-23.83-21.33-35.29-50.76-34.08-87.46c1.24-37.53,14.74-66.54,40.13-86.24c33.15-25.72,81.54-32.48,123.25-32.48
					c45.74,0,83.45,8.13,84.17,8.29c1.32,0.29,2.69,0.29,4.02,0c1.37-0.31,137.92-29.75,207.42,24.19
					c25.39,19.7,38.89,48.72,40.13,86.24C1250.77,1260.79,1239.31,1290.21,1215.5,1311.54z M1246.5,993.92
					c-2.99-1.91-6.8-1.93-9.82-0.09s-4.72,5.26-4.39,8.78c0.06,0.62,5.3,57.89-2.73,128.13c-2.8-2.62-5.71-5.17-8.8-7.57
					c-72.41-56.15-202.3-31.86-220.76-28.04c-18.46-3.82-148.35-28.1-220.76,28.04c-3.1,2.4-6.01,4.94-8.8,7.57
					c-8.03-70.24-2.79-127.51-2.73-128.13c0.33-3.53-1.37-6.94-4.39-8.78c-3.02-1.85-6.83-1.82-9.82,0.09
					c-83.94,53.45-168.01-26.1-198.05-59.77c27.31-2.5,79.6-11.47,129.85-43.37c6.82-4.33,13.33-7.54,19.55-9.92
					c0.36-0.1,0.7-0.26,1.05-0.41c48.87-18.02,78.38,18.58,79.74,20.33c1.94,2.52,5.04,3.85,8.2,3.57c3.17-0.29,5.96-2.19,7.4-5.02
					c26.65-52.21,62.05-82.21,95.54-99.42c1.73-0.33,3.28-1.14,4.52-2.28c50.02-24.15,94.66-20.29,97.76-20
					c0.62,0.07,1.26,0.06,1.88,0c3.11-0.31,47.73-4.16,97.74,19.97c1.26,1.16,2.82,1.98,4.58,2.31
					c33.49,17.22,68.87,47.21,95.51,99.41c1.44,2.83,4.24,4.72,7.4,5.02c3.17,0.27,6.26-1.06,8.2-3.57
					c1.37-1.78,30.52-38.5,79.54-20.43c0.45,0.2,0.88,0.4,1.35,0.53c6.18,2.39,12.66,5.6,19.44,9.91
					c50.26,31.91,102.56,40.88,129.88,43.37C1414.58,967.83,1330.58,1047.46,1246.5,993.92z"/>
				<g>
					<path d="M1181.3,1175.36c-3.4-10.9-12.96-18.8-26.91-22.23c-12.3-3.03-26.94-2.24-41.24,2.22
						c-14.3,4.46-26.8,12.14-35.19,21.62c-9.52,10.76-12.9,22.69-9.5,33.59c4.75,15.24,21.7,24.06,42.67,24.06
						c8.06,0,16.71-1.3,25.49-4.04c14.3-4.46,26.8-12.14,35.19-21.62C1181.33,1198.19,1184.7,1186.26,1181.3,1175.36
						C1181.3,1175.36,1181.3,1175.36,1181.3,1175.36z M1157.92,1196.66c-6.1,6.89-15.88,12.79-26.83,16.21
						c-22.83,7.11-42,1.58-44.93-7.83c-1.37-4.4,0.7-10.15,5.68-15.78c6.1-6.89,15.88-12.79,26.83-16.21
						c6.75-2.1,13.66-3.18,20.07-3.18c3.99,0,7.79,0.42,11.22,1.26c7.3,1.8,12.27,5.35,13.64,9.75
						C1164.98,1185.28,1162.9,1191.03,1157.92,1196.66z"/>
					<path d="M886.85,1155.34c-14.3-4.46-28.95-5.25-41.24-2.22c-13.95,3.44-23.51,11.33-26.91,22.23c0,0,0,0,0,0
						c-3.4,10.9-0.03,22.83,9.5,33.59c8.4,9.48,20.89,17.16,35.19,21.62c8.78,2.74,17.43,4.04,25.49,4.04
						c20.97,0,37.92-8.82,42.67-24.06c3.4-10.9,0.03-22.83-9.5-33.59C913.64,1167.48,901.15,1159.8,886.85,1155.34z M913.84,1205.03
						c-2.94,9.42-22.11,14.95-44.93,7.84c-10.95-3.42-20.73-9.33-26.83-16.21c-4.98-5.63-7.05-11.38-5.68-15.78v0
						c1.37-4.4,6.35-7.95,13.64-9.75c8.93-2.21,20.33-1.5,31.29,1.91c10.95,3.42,20.73,9.33,26.83,16.21
						C913.14,1194.88,915.21,1200.63,913.84,1205.03z"/>
				</g>
				<g>
					<path d="M834.77,958.46c-4.06,3.12-4.82,8.94-1.7,13c1.83,2.37,4.58,3.62,7.36,3.62c1.97,0,3.96-0.63,5.65-1.92
						c2.2-1.7,54.36-40.99,95.65-0.71c3.66,3.57,9.53,3.51,13.11-0.16c3.58-3.66,3.5-9.53-0.16-13.11
						C912.54,918.07,857.82,940.74,834.77,958.46z"/>
					<path d="M1165.23,958.46c-23.05-17.73-77.77-40.39-119.9,0.71c-3.67,3.58-3.74,9.45-0.16,13.11c3.58,3.67,9.45,3.74,13.11,0.16
						c41.07-40.06,93.38-1.02,95.66,0.72c1.68,1.29,3.67,1.91,5.64,1.91c2.78,0,5.53-1.24,7.36-3.62
						C1170.05,967.41,1169.29,961.59,1165.23,958.46z"/>
				</g>
				<g>
					<path d="M690.96,925.96c-25.77,15.25-50.88,16.09-51.1,16.09c-5.12,0.11-9.18,4.35-9.07,9.47c0.11,5.05,4.23,9.07,9.26,9.07
						c0.07,0,0.14,0,0.2,0c1.21-0.02,30.01-0.84,60.15-18.67c21.89-12.95,45.76,8.99,46.85,10.02c3.72,3.52,9.58,3.36,13.09-0.35
						c3.53-3.71,3.37-9.58-0.34-13.11C758.6,937.14,725,905.83,690.96,925.96z"/>
					<path d="M1239.98,938.49c-3.71,3.53-3.86,9.4-0.34,13.11c3.52,3.71,9.39,3.86,13.11,0.34c0.24-0.24,24.72-23.1,46.84-10.01
						c30.14,17.84,58.94,18.65,60.15,18.67c0.07,0,0.13,0,0.2,0c5.02,0,9.13-4.01,9.25-9.05c0.12-5.11-3.92-9.35-9.03-9.49
						c-0.25-0.01-25.35-0.84-51.13-16.09C1275,905.82,1241.39,937.14,1239.98,938.49z"/>
				</g>
			</g>
		</g>
	</g>
</g>
</svg>
