<?xml version="1.0" encoding="utf-8"?>
<!-- Generator: Adobe Illustrator 24.0.0, SVG Export Plug-In . SVG Version: 6.00 Build 0)  -->
<svg version="1.1" id="Layer_1" xmlns="http://www.w3.org/2000/svg" xmlns:xlink="http://www.w3.org/1999/xlink" x="0px" y="0px"
	 viewBox="0 0 2000 2000" style="enable-background:new 0 0 2000 2000;" xml:space="preserve">
<style type="text/css">
	.st0{fill:#FFCF1E;}
	.st1{fill:#FFFFFF;}
	.st2{fill:#4F4E54;}
	.st3{fill:#FFAF8A;}
	.st4{fill:#E2815A;}
	.st5{fill:#BCBEC0;}
</style>
<g>
	<g>
		<path d="M550.24,1511.91c1.92,2.48,2.55,4.76,1.92,6.83c-1.28,5.27-3.04,10.07-5.27,14.38c-5.12,9.43-12.34,17.1-21.69,23.01
			c-9.35,5.91-19.77,8.87-31.28,8.87c-8.31,0-16.1-1.56-23.37-4.67c-7.27-3.12-13.62-7.39-19.05-12.82
			c-5.43-5.43-9.71-11.78-12.82-19.05c-3.12-7.27-4.67-15.06-4.67-23.37v-59.92c0-8.3,1.56-16.09,4.67-23.37
			c3.12-7.27,7.39-13.62,12.82-19.05c5.43-5.43,11.78-9.71,19.05-12.82c7.27-3.12,15.06-4.67,23.37-4.67
			c11.5,0,21.93,2.92,31.28,8.75c9.35,5.83,16.58,13.46,21.69,22.89c2.23,4.31,3.99,9.19,5.27,14.62c0.8,2.24,0.2,4.52-1.8,6.83
			c-2,2.32-4.84,3.39-8.51,3.23h-14.86c-3.83,0-6.31-1.58-7.43-4.74c-0.8-1.9-1.48-3.44-2.04-4.63c-0.56-1.18-1.28-2.37-2.16-3.56
			c-0.88-1.18-1.8-2.17-2.76-2.97c-2.56-2.37-5.39-4.27-8.51-5.69c-3.12-1.43-6.51-2.13-10.19-2.13c-3.68,0-7.11,0.72-10.31,2.15
			c-3.2,1.44-5.99,3.35-8.39,5.74c-2.4,2.39-4.31,5.22-5.75,8.49c-1.44,3.27-2.16,6.74-2.16,10.4v60.99c0,3.67,0.72,7.14,2.16,10.4
			c1.44,3.27,3.36,6.1,5.75,8.49c2.4,2.39,5.19,4.3,8.39,5.74c3.2,1.44,6.63,2.15,10.31,2.15c3.67,0,7.07-0.72,10.19-2.16
			c3.12-1.44,5.95-3.36,8.51-5.75c0.96-0.63,1.88-1.59,2.76-2.88c0.88-1.28,1.6-2.52,2.16-3.72c0.56-1.2,1.24-2.76,2.04-4.67
			c1.12-3.19,3.6-4.79,7.43-4.79h14.86C545.53,1508.28,548.33,1509.44,550.24,1511.91z"/>
		<path d="M647.31,1385.24c8.31,0,16.1,1.56,23.37,4.67c7.27,3.12,13.62,7.39,19.05,12.82c5.43,5.43,9.71,11.78,12.82,19.05
			c3.12,7.27,4.67,15.06,4.67,23.37v59.92c0,8.31-1.56,16.1-4.67,23.37c-3.12,7.27-7.39,13.63-12.82,19.05
			c-5.43,5.44-11.78,9.71-19.05,12.82c-7.27,3.12-15.06,4.67-23.37,4.67c-8.31,0-16.1-1.56-23.37-4.67
			c-7.27-3.12-13.62-7.39-19.05-12.82c-5.43-5.43-9.71-11.78-12.82-19.05c-3.12-7.27-4.67-15.06-4.67-23.37v-59.92
			c0-8.3,1.56-16.09,4.67-23.37c3.12-7.27,7.39-13.62,12.82-19.05c5.43-5.43,11.78-9.71,19.05-12.82
			C631.21,1386.8,639,1385.24,647.31,1385.24z M673.91,1444.63c0-3.67-0.72-7.13-2.16-10.4c-1.44-3.26-3.36-6.1-5.75-8.49
			c-2.4-2.39-5.19-4.3-8.39-5.74c-3.2-1.43-6.63-2.15-10.31-2.15c-3.68,0-7.11,0.72-10.31,2.15c-3.2,1.44-5.99,3.35-8.39,5.74
			c-2.4,2.39-4.31,5.22-5.75,8.49c-1.44,3.27-2.16,6.74-2.16,10.4v60.99c0,3.67,0.72,7.14,2.16,10.4c1.44,3.27,3.36,6.1,5.75,8.49
			c2.4,2.39,5.19,4.3,8.39,5.74c3.2,1.44,6.63,2.15,10.31,2.15c3.67,0,7.11-0.72,10.31-2.15c3.2-1.43,5.99-3.35,8.39-5.74
			c2.4-2.39,4.31-5.22,5.75-8.49c1.44-3.27,2.16-6.73,2.16-10.4V1444.63z"/>
		<path d="M831.51,1388.96c2.79-1.2,5.78-1.8,8.98-1.8c3.19,0,6.19,0.6,8.98,1.8c2.8,1.2,4.59,3.48,5.4,6.83l19.41,83.17
			c0.32,1.28,1,2.36,2.03,3.24c1.04,0.88,2.28,1.32,3.72,1.32c3.03,0,4.95-1.44,5.75-4.31l24.21-87c0.48-1.6,1.63-2.76,3.47-3.48
			s3.63-1.08,5.4-1.08h16.54c1.92,0,3.55,0.64,4.91,1.92c1.36,1.28,2.04,2.88,2.04,4.79c0,0.8-0.08,1.36-0.24,1.68l-44.34,161.3
			c-1.92,3.68-4.96,5.51-9.11,5.51h-15.34c-4.31,0-7.35-1.84-9.11-5.51l-17.98-63.99c-0.8-3.03-2.72-4.55-5.75-4.55
			c-3.04,0-4.96,1.52-5.75,4.55l-17.98,63.99c-1.92,3.68-4.96,5.51-9.11,5.51h-15.34c-4.31,0-7.35-1.84-9.11-5.51l-44.34-161.3
			c-0.16-0.32-0.24-0.88-0.24-1.68c0-1.92,0.68-3.51,2.04-4.79c1.36-1.28,3-1.92,4.91-1.92h16.54c1.76,0,3.55,0.36,5.39,1.08
			c1.83,0.72,2.91,1.88,3.24,3.48l24.45,87c0.8,2.88,2.71,4.31,5.75,4.31c3.03,0,4.95-1.44,5.75-4.31l19.41-83.41
			C826.91,1392.43,828.71,1390.16,831.51,1388.96z"/>
		<path d="M1089.31,1475.6c4.94,4.64,8.85,10.11,11.72,16.42c2.87,6.32,4.3,13.15,4.3,20.49c0,7.03-1.32,13.58-3.95,19.65
			c-2.63,6.08-6.22,11.38-10.76,15.94c-4.55,4.55-9.89,8.15-16.03,10.79c-6.14,2.64-12.72,3.95-19.73,3.95h-58.6
			c-2.71,0-5.07-1-7.06-3c-2-2-2.99-4.35-2.99-7.07v-155.31c0-2.88,0.99-5.31,2.99-7.31c1.99-2,4.35-3,7.06-3h56.68
			c6.86,0,13.35,1.32,19.5,3.95c6.14,2.64,11.48,6.23,16.03,10.79c4.54,4.55,8.13,9.87,10.76,15.94c2.63,6.07,3.95,12.54,3.95,19.41
			s-1.28,13.26-3.83,19.17c-2.56,5.91-5.98,11.19-10.28,15.82c-0.48,0.48-0.72,1.04-0.72,1.68
			C1088.35,1474.4,1088.67,1474.97,1089.31,1475.6z M1018.81,1447.85c0,2.07,0.72,3.81,2.16,5.24c1.44,1.43,3.19,2.14,5.27,2.14
			h26.36c4.95,0,9.19-1.74,12.7-5.23c3.51-3.49,5.27-7.7,5.27-12.62s-1.76-9.08-5.27-12.5c-3.52-3.41-7.75-5.12-12.7-5.12h-26.36
			c-2.08,0-3.83,0.68-5.27,2.02s-2.16,3.06-2.16,5.12V1447.85z M1052.46,1530.25c5.88,0,10.89-2.04,15.03-6.11
			c4.13-4.07,6.21-9.07,6.21-14.98c0-5.91-2.07-10.94-6.21-15.1c-4.14-4.15-9.15-6.23-15.03-6.23h-25.06
			c-2.39,0-4.41,0.88-6.09,2.64c-1.67,1.76-2.5,3.83-2.5,6.23v24.93c0,2.4,0.84,4.43,2.5,6.11c1.67,1.68,3.7,2.52,6.09,2.52H1052.46
			z"/>
		<path d="M1179.64,1397.47v109.29c0,3.68,0.68,7.11,2.04,10.31c1.36,3.2,3.25,5.99,5.66,8.39c2.41,2.4,5.22,4.28,8.43,5.63
			c3.21,1.36,6.66,2.04,10.35,2.04s7.14-0.68,10.35-2.04c3.21-1.35,6.02-3.24,8.42-5.63s4.29-5.19,5.66-8.39
			c1.36-3.19,2.05-6.63,2.05-10.31v-109.29c0-2.88,0.99-5.31,2.97-7.31c1.98-2,4.4-3,7.26-3h12.38c2.69,0,5.03,1,7.02,3
			c1.98,2,2.97,4.43,2.97,7.31v108.57c0,8.15-1.56,15.82-4.66,23.01c-3.11,7.19-7.34,13.46-12.68,18.82
			c-5.34,5.35-11.6,9.59-18.78,12.7c-7.18,3.12-14.83,4.67-22.96,4.67c-8.14,0-15.79-1.56-22.96-4.67
			c-7.18-3.12-13.44-7.35-18.78-12.7c-5.34-5.35-9.57-11.62-12.68-18.82c-3.11-7.19-4.66-14.86-4.66-23.01v-108.57
			c0-2.88,0.99-5.31,2.97-7.31c1.98-2,4.4-3,7.26-3h12.37c2.69,0,5.03,1,7.02,3C1178.64,1392.16,1179.64,1394.59,1179.64,1397.47z"
			/>
		<path d="M1418.71,1533.24c2,2,3,4.36,3,7.07v12.46c0,2.72-1,5.08-3,7.07c-2,2-4.35,3-7.07,3h-87.48c-2.72,0-5.08-1-7.07-3
			c-2-2-3-4.35-3-7.07v-155.55c0-2.72,0.99-5.07,3-7.07c2-2,4.35-3,7.07-3h12.46c2.71,0,5.07,1,7.07,3c2,2,3,4.35,3,7.07v125.11
			c0,2.24,0.75,4.12,2.28,5.63c1.52,1.52,3.39,2.28,5.63,2.28h57.04C1414.36,1530.25,1416.71,1531.25,1418.71,1533.24z"/>
		<path d="M1563,1533.24c2,2,3,4.36,3,7.07v12.46c0,2.72-1,5.08-3,7.07c-2,2-4.35,3-7.07,3h-87.48c-2.72,0-5.08-1-7.07-3
			c-2-2-3-4.35-3-7.07v-155.55c0-2.72,0.99-5.07,3-7.07c2-2,4.35-3,7.07-3h12.46c2.71,0,5.07,1,7.07,3c2,2,3,4.35,3,7.07v125.11
			c0,2.24,0.75,4.12,2.28,5.63c1.52,1.52,3.39,2.28,5.63,2.28h57.04C1558.65,1530.25,1561.01,1531.25,1563,1533.24z"/>
	</g>
	<g>
		<path class="st0" d="M1260.09,434.76H739.91c-103.49,0-187.39,83.9-187.39,187.39v520.18c0,103.49,83.9,187.39,187.39,187.39
			h520.18c103.49,0,187.39-83.9,187.39-187.39V622.15C1447.48,518.66,1363.58,434.76,1260.09,434.76z"/>
		<path d="M635.56,724.2c0.7,0.59,1.02,1.2,0.97,1.83c-0.04,1.58-0.24,3.06-0.61,4.42c-0.87,3-2.45,5.64-4.75,7.9
			c-2.3,2.26-5.08,3.75-8.36,4.47c-2.37,0.52-4.68,0.56-6.94,0.12c-2.26-0.44-4.34-1.26-6.22-2.47c-1.88-1.21-3.5-2.75-4.83-4.63
			c-1.34-1.88-2.27-4-2.78-6.37l-3.72-17.06c-0.52-2.36-0.55-4.68-0.12-6.94s1.26-4.34,2.47-6.22c1.21-1.88,2.75-3.5,4.63-4.83
			c1.88-1.34,4-2.27,6.36-2.78c3.28-0.71,6.43-0.53,9.45,0.55c3.02,1.08,5.56,2.81,7.6,5.17c0.9,1.09,1.71,2.37,2.41,3.84
			c0.37,0.59,0.34,1.27-0.09,2.06c-0.43,0.78-1.17,1.27-2.22,1.45l-4.23,0.92c-1.09,0.24-1.9-0.06-2.41-0.89
			c-0.35-0.49-0.63-0.89-0.87-1.19c-0.23-0.3-0.51-0.59-0.83-0.88c-0.32-0.28-0.65-0.51-0.97-0.67c-0.88-0.52-1.8-0.88-2.78-1.09
			c-0.98-0.21-1.99-0.2-3.03,0.02c-1.05,0.23-1.98,0.65-2.8,1.25c-0.82,0.61-1.5,1.33-2.03,2.16c-0.53,0.83-0.9,1.76-1.11,2.77
			c-0.21,1.02-0.2,2.05,0.03,3.1l3.78,17.37c0.23,1.05,0.65,1.99,1.26,2.83c0.61,0.84,1.33,1.53,2.16,2.06
			c0.83,0.53,1.75,0.9,2.74,1.11c1,0.21,2.02,0.2,3.07-0.03c1.05-0.23,1.97-0.64,2.77-1.25s1.49-1.32,2.07-2.17
			c0.23-0.24,0.44-0.57,0.61-0.99c0.17-0.42,0.3-0.82,0.38-1.19c0.08-0.38,0.18-0.86,0.29-1.46c0.12-0.98,0.73-1.59,1.82-1.83
			l4.23-0.92C633.99,723.46,634.86,723.61,635.56,724.2z"/>
		<path d="M708.39,525.91c2.46,3.03,4.21,6.33,5.23,9.9c1.02,3.57,1.35,7.16,0.98,10.75c-0.37,3.59-1.41,7.03-3.14,10.32
			s-4.1,6.17-7.13,8.63l-21.83,17.77c-3.03,2.46-6.33,4.21-9.9,5.23c-3.57,1.02-7.16,1.35-10.75,0.98
			c-3.59-0.37-7.03-1.42-10.32-3.14c-3.29-1.73-6.17-4.1-8.63-7.13c-2.46-3.03-4.21-6.33-5.23-9.9c-1.02-3.57-1.35-7.16-0.98-10.75
			c0.37-3.59,1.41-7.03,3.14-10.32c1.72-3.29,4.1-6.17,7.13-8.63l21.83-17.77c3.03-2.46,6.33-4.21,9.9-5.23s7.16-1.35,10.75-0.98
			c3.59,0.37,7.03,1.41,10.32,3.14C703.05,520.51,705.92,522.88,708.39,525.91z M694.64,553.22c1.34-1.09,2.39-2.38,3.15-3.87
			c0.76-1.49,1.23-3.03,1.39-4.61c0.16-1.58,0.03-3.17-0.4-4.76c-0.43-1.59-1.18-3.05-2.27-4.39c-1.09-1.34-2.37-2.38-3.84-3.12
			c-1.47-0.74-3-1.19-4.58-1.35c-1.58-0.16-3.18-0.02-4.8,0.42c-1.62,0.45-3.09,1.21-4.43,2.3l-22.22,18.09
			c-1.34,1.09-2.39,2.38-3.15,3.87s-1.23,3.03-1.39,4.61c-0.16,1.58-0.03,3.17,0.4,4.76c0.42,1.59,1.18,3.05,2.27,4.39
			c1.09,1.34,2.37,2.38,3.84,3.12c1.47,0.74,3,1.19,4.58,1.35c1.58,0.16,3.18,0.02,4.8-0.42c1.62-0.45,3.09-1.21,4.43-2.3
			L694.64,553.22z"/>
		<path d="M895.55,595.82c0.63-0.62,1.38-1.11,2.24-1.45c0.87-0.34,1.74-0.5,2.63-0.47c0.89,0.03,1.62,0.45,2.19,1.27l14.17,20.46
			c0.22,0.31,0.52,0.53,0.9,0.66c0.38,0.13,0.76,0.11,1.15-0.04c0.82-0.32,1.19-0.92,1.1-1.79l-2.76-26.18
			c-0.04-0.48,0.15-0.92,0.57-1.31c0.42-0.39,0.87-0.68,1.35-0.87l4.48-1.77c0.52-0.21,1.03-0.21,1.54-0.01s0.86,0.56,1.07,1.08
			c0.09,0.22,0.12,0.38,0.11,0.48l5.26,48.47c-0.13,1.2-0.75,2.03-1.88,2.47l-4.16,1.64c-1.17,0.46-2.19,0.29-3.06-0.52
			l-11.73-15.42c-0.54-0.74-1.23-0.94-2.05-0.62c-0.82,0.33-1.18,0.94-1.07,1.85l1.98,19.27c-0.13,1.2-0.75,2.03-1.88,2.47
			l-4.16,1.64c-1.17,0.46-2.19,0.29-3.06-0.52l-29.29-38.97c-0.08-0.07-0.16-0.21-0.24-0.43c-0.21-0.52-0.19-1.03,0.04-1.52
			c0.23-0.49,0.61-0.84,1.13-1.05l4.48-1.77c0.48-0.19,1-0.28,1.58-0.29c0.57,0,0.99,0.2,1.25,0.6l15.94,20.96
			c0.52,0.69,1.2,0.88,2.02,0.55c0.82-0.32,1.19-0.92,1.1-1.79l-3.67-24.69C894.68,597.26,894.92,596.45,895.55,595.82z"/>
		<path d="M1225.48,1236.79c2.62,1.03,4.96,2.54,7.04,4.53c2.07,2,3.68,4.41,4.8,7.24c1.08,2.71,1.58,5.44,1.49,8.19
			c-0.08,2.75-0.65,5.34-1.71,7.8c-1.06,2.45-2.56,4.66-4.53,6.62c-1.96,1.96-4.3,3.48-7,4.55l-22.6,8.99
			c-1.05,0.42-2.11,0.39-3.18-0.07c-1.08-0.46-1.82-1.22-2.24-2.27l-23.82-59.9c-0.44-1.11-0.43-2.2,0.03-3.28
			c0.46-1.08,1.22-1.82,2.26-2.24l21.86-8.69c2.64-1.05,5.35-1.54,8.13-1.47c2.77,0.08,5.38,0.64,7.83,1.7
			c2.45,1.06,4.65,2.56,6.6,4.5c1.94,1.94,3.45,4.23,4.5,6.88c1.05,2.65,1.54,5.31,1.47,7.98c-0.08,2.67-0.59,5.23-1.54,7.68
			c-0.11,0.26-0.12,0.51-0.02,0.76C1224.93,1236.48,1225.14,1236.64,1225.48,1236.79z M1194.04,1236.9c0.32,0.8,0.86,1.36,1.64,1.69
			c0.77,0.33,1.56,0.34,2.36,0.02l10.17-4.04c1.91-0.76,3.28-2.08,4.1-3.97c0.82-1.89,0.85-3.78,0.1-5.68
			c-0.75-1.9-2.07-3.23-3.95-4.01c-1.88-0.78-3.78-0.78-5.68-0.03l-10.17,4.04c-0.8,0.32-1.38,0.85-1.72,1.59s-0.36,1.51-0.05,2.3
			L1194.04,1236.9z M1219.65,1263.52c2.27-0.9,3.89-2.46,4.86-4.66c0.97-2.21,1-4.45,0.1-6.73c-0.91-2.28-2.48-3.9-4.71-4.87
			c-2.23-0.97-4.48-1-6.75-0.1l-9.66,3.84c-0.92,0.37-1.57,1.02-1.94,1.95c-0.37,0.94-0.38,1.86-0.01,2.79l3.82,9.61
			c0.37,0.92,1,1.58,1.9,1.97c0.9,0.39,1.81,0.4,2.73,0.04L1219.65,1263.52z"/>
		<path d="M1326.21,1149.24l13.9,28.66c0.47,0.96,1.08,1.78,1.85,2.44c0.76,0.67,1.61,1.16,2.55,1.48c0.94,0.32,1.91,0.46,2.93,0.4
			c1.01-0.05,2.01-0.31,2.97-0.78c0.97-0.47,1.79-1.09,2.46-1.85c0.67-0.76,1.17-1.61,1.49-2.55s0.47-1.91,0.42-2.92
			c-0.05-1.01-0.31-2-0.77-2.96l-13.9-28.66c-0.37-0.75-0.42-1.52-0.15-2.3c0.26-0.78,0.77-1.35,1.52-1.71l3.25-1.57
			c0.71-0.34,1.45-0.38,2.22-0.11c0.77,0.27,1.34,0.78,1.71,1.54l13.81,28.47c1.04,2.14,1.6,4.35,1.7,6.63
			c0.1,2.28-0.21,4.46-0.93,6.55c-0.72,2.08-1.82,3.99-3.31,5.72c-1.49,1.73-3.29,3.11-5.43,4.15c-2.13,1.04-4.34,1.6-6.62,1.7
			c-2.28,0.1-4.46-0.22-6.54-0.94c-2.08-0.72-3.99-1.83-5.72-3.32c-1.73-1.49-3.11-3.3-4.15-5.44l-13.81-28.47
			c-0.37-0.75-0.42-1.52-0.15-2.3c0.27-0.78,0.77-1.35,1.52-1.71l3.24-1.57c0.71-0.34,1.45-0.38,2.22-0.11
			C1325.27,1147.97,1325.84,1148.49,1326.21,1149.24z"/>
		<path d="M1313.4,1037.01c0.79,0.22,1.39,0.67,1.78,1.36l1.79,3.16c0.39,0.69,0.48,1.43,0.26,2.22c-0.22,0.79-0.67,1.39-1.36,1.78
			l-22.18,12.58c-0.69,0.39-1.43,0.48-2.22,0.26c-0.79-0.22-1.39-0.67-1.78-1.36l-22.37-39.43c-0.39-0.69-0.48-1.43-0.26-2.22
			c0.22-0.79,0.67-1.39,1.36-1.78l3.16-1.79c0.69-0.39,1.43-0.48,2.22-0.26c0.79,0.22,1.39,0.67,1.78,1.36l17.99,31.72
			c0.32,0.57,0.78,0.94,1.39,1.1c0.6,0.17,1.19,0.09,1.76-0.23l14.46-8.2C1311.86,1036.87,1312.6,1036.79,1313.4,1037.01z"/>
		<path d="M1418.31,967.77c0.94,1.16,1.34,2.45,1.2,3.88l-0.66,6.55c-0.15,1.43-0.8,2.61-1.95,3.56c-1.16,0.94-2.45,1.34-3.87,1.2
			l-45.97-4.67c-1.43-0.15-2.61-0.79-3.56-1.95c-0.95-1.16-1.34-2.45-1.2-3.88l8.3-81.75c0.14-1.43,0.79-2.61,1.95-3.56
			c1.16-0.94,2.45-1.34,3.88-1.2l6.55,0.66c1.43,0.14,2.61,0.79,3.56,1.95c0.94,1.16,1.34,2.45,1.2,3.88l-6.67,65.75
			c-0.12,1.18,0.18,2.2,0.9,3.08c0.72,0.88,1.66,1.38,2.84,1.5l29.98,3.04C1416.18,965.96,1417.36,966.61,1418.31,967.77z"/>
		<g>
			<g>
				<path class="st1" d="M1000,1175.26c-7.03,0.95-43.75,5.33-84.74,0.74c24.15,14.09,52.52,21.23,84.74,21.23
					c32.23,0,60.62-7.15,84.78-21.25c-13.58,1.52-26.7,2.09-38.42,2.09C1022.69,1178.07,1004.71,1175.9,1000,1175.26z"/>
				<path class="st2" d="M906.09,1019.17c-8.67-2.7-17.69-3.26-24.76-1.52c-5.77,1.42-9.71,4.23-10.8,7.72v0
					c-1.09,3.48,0.55,8.03,4.5,12.49c4.82,5.45,12.56,10.12,21.23,12.83c18.06,5.63,33.23,1.25,35.56-6.2
					c1.09-3.48-0.55-8.03-4.5-12.49C922.5,1026.55,914.76,1021.87,906.09,1019.17z"/>
				<path class="st2" d="M1118.66,1017.65c-2.71-0.67-5.72-1-8.88-1c-5.07,0-10.54,0.85-15.88,2.51
					c-8.67,2.7-16.41,7.38-21.23,12.83c-3.94,4.45-5.58,9.01-4.5,12.49c2.32,7.45,17.49,11.82,35.55,6.2
					c8.67-2.7,16.41-7.38,21.23-12.83c3.94-4.45,5.58-9.01,4.5-12.49C1128.37,1021.89,1124.44,1019.07,1118.66,1017.65z"/>
				<path class="st3" d="M1165.71,991.32c-55-42.68-163.04-19.38-164.13-19.14c-1.05,0.23-2.13,0.23-3.18,0
					c-0.57-0.13-30.41-6.56-66.6-6.56c-33,0-71.3,5.35-97.52,25.7c-20.09,15.59-30.77,38.55-31.75,68.24
					c-0.96,29.05,8.11,52.33,26.97,69.21c53.53,47.93,168.3,31.99,169.45,31.82c0.69-0.1,1.4-0.1,2.1,0
					c1.16,0.17,116.03,16.04,169.48-31.84c18.84-16.88,27.91-40.16,26.95-69.19C1196.49,1029.87,1185.8,1006.91,1165.71,991.32z
					 M945.83,1048.85c-3.76,12.06-17.17,19.04-33.76,19.04c-6.38,0-13.22-1.03-20.17-3.2c-11.31-3.53-21.2-9.6-27.85-17.11
					c-7.54-8.51-10.21-17.96-7.52-26.58c0,0,0,0,0,0c2.69-8.63,10.25-14.87,21.29-17.59c9.73-2.4,21.32-1.77,32.64,1.76
					c11.31,3.53,21.2,9.6,27.85,17.11C945.85,1030.78,948.52,1040.22,945.83,1048.85z M1135.95,1047.58
					c-6.64,7.5-16.53,13.58-27.85,17.11c-6.95,2.17-13.79,3.2-20.17,3.2c-16.59,0-30-6.98-33.76-19.04
					c-2.69-8.63-0.02-18.07,7.52-26.58c6.64-7.5,16.53-13.58,27.85-17.11c11.31-3.53,22.91-4.15,32.64-1.76
					c11.04,2.72,18.6,8.97,21.29,17.59c0,0,0,0,0,0C1146.15,1029.62,1143.49,1039.07,1135.95,1047.58z"/>
				<g>
					<path class="st4" d="M1197.47,1059.57c-0.09-2.6-0.27-5.13-0.51-7.62c-2.25,21.87-11.11,39.85-26.44,53.58
						c-53.45,47.88-168.32,32.01-169.48,31.84c-0.69-0.1-1.4-0.1-2.1,0c-1.15,0.17-115.92,16.11-169.45-31.82
						c-15.34-13.74-24.21-31.72-26.46-53.6c-0.23,2.49-0.42,5.02-0.51,7.62c-0.96,29.05,8.11,52.33,26.97,69.21
						c53.53,47.93,168.3,31.99,169.45,31.82c0.69-0.1,1.4-0.1,2.1,0c1.16,0.17,116.03,16.04,169.48-31.84
						C1189.36,1111.88,1198.43,1088.6,1197.47,1059.57z"/>
				</g>
				<path class="st2" d="M834.39,787.09c16.73-29.56,37.13-50,57.83-64.17c-32.87-3.01-88.96-13.81-110.17-52.14
					c-13.34-24.11-10.6-54.73,8.11-91.24c-19.4,13.02-45.59,36.11-55.08,70.07c-10.15,36.34,0.72,77.54,32.19,122.51
					C799.4,762.47,823.01,777.22,834.39,787.09z"/>
				<path class="st2" d="M1165.61,787.09c11.38-9.87,34.99-24.62,67.12-14.98c31.47-44.97,42.34-86.17,32.19-122.51
					c-9.49-33.96-35.67-57.05-55.08-70.07c18.71,36.51,21.45,67.13,8.1,91.24c-21.21,38.33-77.29,49.13-110.16,52.14
					C1128.48,737.1,1148.87,757.53,1165.61,787.09z"/>
				<path class="st1" d="M1233.64,787.97c-0.37-0.1-0.71-0.26-1.07-0.42c-38.79-14.3-61.85,14.76-62.94,16.17
					c-1.53,1.99-3.98,3.04-6.49,2.83c-2.51-0.23-4.72-1.73-5.86-3.97c-21.08-41.31-49.08-65.04-75.58-78.67
					c-1.39-0.26-2.63-0.91-3.62-1.83c-39.57-19.1-74.88-16.05-77.34-15.8c-0.49,0.05-1,0.05-1.49,0
					c-2.45-0.23-37.77-3.28-77.35,15.82c-0.98,0.91-2.21,1.55-3.58,1.81c-26.5,13.62-54.51,37.35-75.6,78.67
					c-1.14,2.24-3.35,3.74-5.86,3.97c-2.5,0.22-4.95-0.84-6.49-2.83c-1.08-1.39-24.43-30.35-63.1-16.09
					c-0.28,0.12-0.54,0.24-0.83,0.32c-4.92,1.88-10.07,4.42-15.47,7.85c-39.76,25.25-81.14,32.34-102.75,34.32
					c23.77,26.64,90.29,89.59,156.72,47.29c2.36-1.51,5.38-1.53,7.77-0.07c2.39,1.46,3.74,4.16,3.47,6.95
					c-0.05,0.49-4.19,45.81,2.16,101.39c2.21-2.08,4.52-4.09,6.97-5.99c57.3-44.43,160.08-25.21,174.68-22.19
					c14.61-3.02,117.39-22.24,174.68,22.19c2.45,1.9,4.75,3.91,6.97,5.99c6.35-55.58,2.21-100.89,2.16-101.39
					c-0.26-2.79,1.08-5.49,3.47-6.95c2.39-1.46,5.4-1.44,7.77,0.07c66.53,42.36,133-20.64,156.74-47.29
					c-21.61-1.98-63-9.07-102.77-34.32C1243.65,792.4,1238.53,789.86,1233.64,787.97z M810.37,843.94
					c-2.78,2.94-7.42,3.06-10.36,0.28c-0.87-0.81-19.75-18.18-37.07-7.93c-23.85,14.12-46.64,14.76-47.6,14.78
					c-0.05,0-0.11,0-0.16,0c-3.98,0-7.25-3.18-7.33-7.18c-0.09-4.05,3.13-7.4,7.18-7.49c0.18-0.01,20.04-0.66,40.44-12.73
					c26.93-15.94,53.52,8.85,54.64,9.91C813.04,836.35,813.16,841,810.37,843.94z M964.26,860.31c-2.83,2.9-7.48,2.96-10.37,0.13
					c-32.67-31.87-73.94-0.78-75.69,0.56c-1.33,1.02-2.91,1.52-4.47,1.52c-2.2,0-4.38-0.99-5.82-2.86
					c-2.47-3.21-1.87-7.82,1.34-10.29c18.24-14.03,61.54-31.97,94.88,0.56C967.03,852.77,967.09,857.41,964.26,860.31z
					 M1132.09,859.66c-1.45,1.88-3.62,2.86-5.82,2.86c-1.56,0-3.13-0.49-4.46-1.52c-1.81-1.38-43.2-32.27-75.7-0.57
					c-2.89,2.83-7.54,2.77-10.37-0.13c-2.83-2.9-2.77-7.54,0.13-10.37c33.34-32.53,76.64-14.59,94.88-0.56
					C1133.96,851.84,1134.56,856.45,1132.09,859.66z M1292.14,843.9c-0.09,3.99-3.35,7.16-7.32,7.16c-0.05,0-0.11,0-0.16,0
					c-0.96-0.02-23.75-0.66-47.6-14.78c-17.5-10.36-36.87,7.73-37.06,7.92c-2.94,2.79-7.58,2.67-10.37-0.27
					c-2.79-2.94-2.67-7.58,0.27-10.37c1.12-1.07,27.71-25.85,54.64-9.91c20.39,12.07,40.26,12.73,40.46,12.73
					C1289.03,836.5,1292.24,839.86,1292.14,843.9z"/>
				<g>
					<path class="st5" d="M1195.06,854.78c-2.37-1.51-5.38-1.53-7.77-0.07c-2.39,1.46-3.74,4.16-3.47,6.95
						c0.02,0.19,0.63,6.92,1.03,18.25c0.6-1.01,1.4-1.92,2.44-2.55c2.39-1.46,5.4-1.44,7.77,0.07
						c66.53,42.36,133-20.64,156.74-47.29c-5.47-0.5-12.21-1.33-19.86-2.7C1300.53,855.7,1247.83,888.38,1195.06,854.78z"/>
					<path class="st5" d="M816.19,861.66c0.26-2.79-1.08-5.49-3.47-6.95c-2.39-1.46-5.41-1.44-7.77,0.07
						c-52.68,33.55-105.4,0.89-136.83-27.35c-7.66,1.37-14.41,2.2-19.89,2.71c23.77,26.64,90.29,89.59,156.72,47.29
						c2.36-1.51,5.38-1.53,7.77-0.07c1.04,0.64,1.84,1.54,2.44,2.55C815.55,868.58,816.17,861.85,816.19,861.66z"/>
					<path class="st5" d="M1181.65,963.05c-2.21-2.08-4.51-4.09-6.97-5.99c-57.29-44.43-160.07-25.21-174.68-22.19
						c-14.61-3.02-117.39-22.24-174.68,22.19c-2.45,1.9-4.75,3.91-6.97,5.99c-2.18-19.09-3.13-36.96-3.42-52.23
						c-0.37,18.56,0.04,45.26,3.42,74.88c2.21-2.08,4.52-4.09,6.97-5.99c57.3-44.43,160.08-25.21,174.68-22.19
						c14.61-3.02,117.39-22.24,174.68,22.19c2.45,1.9,4.75,3.91,6.97,5.99c3.39-29.62,3.79-56.32,3.42-74.88
						C1184.77,926.09,1183.83,943.96,1181.65,963.05z"/>
				</g>
			</g>
			<g>
				<path d="M1373.33,820.2c-1.28-2.48-3.8-4-6.64-3.98c-0.54,0.08-57.39,0.49-109.8-32.79c-3.47-2.2-6.85-4.08-10.17-5.72
					c32.63-47.72,43.52-92.15,32.3-132.17c-17.7-63.11-83.5-91.23-86.3-92.4c-2.97-1.24-6.4-0.4-8.46,2.07
					c-2.06,2.48-2.27,6-0.51,8.7c27.46,42.16,34.66,75.72,21.37,99.74c-24.25,43.87-109.39,45.7-120.66,45.74
					c-41.32-19.84-78.72-18.17-84.46-17.77c-5.74-0.4-43.13-2.07-84.44,17.76c-11.43-0.07-96.44-1.9-120.67-45.74
					c-13.28-24.03-6.09-57.58,21.37-99.74c1.76-2.7,1.55-6.23-0.51-8.7c-2.06-2.47-5.49-3.31-8.46-2.07
					c-2.79,1.17-68.59,29.29-86.3,92.4c-11.22,40.02-0.33,84.45,32.3,132.16c-3.32,1.64-6.71,3.52-10.17,5.72
					c-50.69,32.19-105.84,32.79-109.61,32.79c-0.36,0-0.25,0-0.3,0c-2.75,0-5.27,1.54-6.53,3.99c-1.27,2.48-1.03,5.47,0.62,7.71
					c0.73,0.98,59.08,78.56,130.59,78.55c13.88,0,28.25-2.92,42.8-9.89c-0.95,19.9-1.53,59.33,4.8,104.09
					c-10.93,15.94-16.86,35.47-17.62,58.42c-1.11,33.59,9.6,60.72,31.85,80.63c17.25,15.45,39.64,24.91,62.77,30.58
					c31.18,27.6,70.7,41.62,117.52,41.62c46.84,0,86.36-14.03,117.55-41.65c23.12-5.67,45.5-15.12,62.74-30.55
					c22.24-19.91,32.95-47.04,31.85-80.63c-0.76-22.95-6.68-42.48-17.62-58.42c6.33-44.77,5.76-84.2,4.8-104.09
					c14.55,6.97,28.91,9.89,42.8,9.89c71.5-0.01,129.87-77.57,130.59-78.55C1374.37,825.67,1374.61,822.68,1373.33,820.2z
					 M1217.94,670.77c13.34-24.11,10.6-54.73-8.1-91.24c19.4,13.02,45.59,36.11,55.08,70.07c10.15,36.34-0.72,77.55-32.19,122.51
					c-32.13-9.65-55.74,5.11-67.12,14.98c-16.73-29.56-37.13-50-57.83-64.18C1140.65,719.9,1196.74,709.1,1217.94,670.77z
					 M735.08,649.6c9.49-33.96,35.68-57.05,55.08-70.07c-18.71,36.51-21.45,67.13-8.11,91.24c21.21,38.34,77.29,49.13,110.17,52.14
					c-20.7,14.18-41.1,34.61-57.83,64.17c-11.38-9.87-35-24.62-67.12-14.98C735.8,727.15,724.93,685.95,735.08,649.6z M1000,1197.24
					c-32.22,0-60.59-7.14-84.74-21.23c41,4.59,77.71,0.21,84.74-0.74c4.71,0.63,22.69,2.81,46.36,2.81
					c11.72,0,24.84-0.57,38.42-2.09C1060.62,1190.09,1032.23,1197.24,1000,1197.24z M1170.52,1128.76
					c-53.45,47.88-168.32,32.01-169.48,31.84c-0.69-0.1-1.4-0.1-2.1,0c-1.15,0.17-115.92,16.11-169.45-31.82
					c-18.85-16.88-27.93-40.16-26.97-69.21c0.98-29.69,11.67-52.66,31.75-68.24c26.23-20.35,64.52-25.7,97.52-25.7
					c36.2,0,66.04,6.44,66.6,6.56c1.05,0.23,2.13,0.23,3.18,0c1.08-0.24,109.13-23.54,164.13,19.14
					c20.09,15.59,30.77,38.55,31.75,68.24C1198.43,1088.6,1189.36,1111.88,1170.52,1128.76z M1195.06,877.43
					c-2.37-1.51-5.38-1.53-7.77-0.07c-2.39,1.46-3.74,4.16-3.47,6.95c0.05,0.49,4.19,45.81-2.16,101.39
					c-2.21-2.08-4.52-4.09-6.97-5.99c-57.29-44.43-160.07-25.21-174.68-22.19c-14.61-3.02-117.39-22.24-174.68,22.19
					c-2.45,1.9-4.75,3.91-6.97,5.99c-6.35-55.58-2.21-100.89-2.16-101.39c0.26-2.79-1.08-5.49-3.47-6.95
					c-2.39-1.46-5.41-1.44-7.77,0.07c-66.42,42.3-132.94-20.66-156.72-47.29c21.61-1.98,62.99-9.08,102.75-34.32
					c5.4-3.43,10.55-5.97,15.47-7.85c0.29-0.08,0.55-0.21,0.83-0.32c38.67-14.26,62.02,14.7,63.1,16.09
					c1.53,1.99,3.99,3.05,6.49,2.83c2.51-0.23,4.72-1.73,5.86-3.97c21.09-41.32,49.1-65.05,75.6-78.67c1.37-0.26,2.59-0.9,3.58-1.81
					c39.58-19.11,74.91-16.06,77.35-15.82c0.49,0.05,1,0.05,1.49,0c2.46-0.25,37.77-3.3,77.34,15.8c0.99,0.92,2.23,1.57,3.62,1.83
					c26.5,13.62,54.49,37.36,75.58,78.67c1.14,2.24,3.35,3.74,5.86,3.97c2.51,0.21,4.95-0.84,6.49-2.83
					c1.09-1.41,24.15-30.47,62.94-16.17c0.36,0.16,0.7,0.32,1.07,0.42c4.89,1.89,10.02,4.43,15.39,7.84
					c39.77,25.25,81.16,32.35,102.77,34.32C1328.06,856.79,1261.59,919.79,1195.06,877.43z"/>
				<g>
					<path d="M1143.46,1021c-2.69-8.63-10.25-14.87-21.29-17.59c-9.73-2.39-21.32-1.77-32.64,1.76c-11.32,3.53-21.2,9.6-27.85,17.11
						c-7.54,8.51-10.21,17.96-7.52,26.58c3.76,12.06,17.17,19.04,33.76,19.04c6.37,0,13.22-1.03,20.17-3.2
						c11.32-3.53,21.21-9.6,27.85-17.11C1143.49,1039.07,1146.15,1029.62,1143.46,1021C1143.46,1021,1143.46,1021,1143.46,1021z
						 M1124.96,1037.85c-4.82,5.45-12.56,10.12-21.23,12.83c-18.06,5.62-33.23,1.25-35.55-6.2c-1.09-3.48,0.55-8.03,4.5-12.49
						c4.82-5.45,12.56-10.12,21.23-12.83c5.34-1.67,10.81-2.51,15.88-2.51c3.16,0,6.16,0.33,8.88,1c5.77,1.42,9.71,4.23,10.8,7.71
						C1130.54,1028.85,1128.91,1033.4,1124.96,1037.85z"/>
					<path d="M910.46,1005.16c-11.32-3.53-22.91-4.16-32.64-1.76c-11.04,2.72-18.6,8.97-21.29,17.59c0,0,0,0,0,0
						c-2.69,8.63-0.02,18.07,7.52,26.58c6.64,7.5,16.53,13.58,27.85,17.11c6.95,2.17,13.79,3.2,20.17,3.2
						c16.59,0,30-6.98,33.76-19.04c2.69-8.63,0.02-18.07-7.52-26.58C931.67,1014.76,921.78,1008.69,910.46,1005.16z M931.82,1044.48
						c-2.33,7.45-17.5,11.83-35.56,6.2c-8.67-2.7-16.41-7.38-21.23-12.83c-3.94-4.45-5.58-9.01-4.5-12.49v0
						c1.09-3.48,5.02-6.29,10.8-7.72c7.07-1.75,16.09-1.19,24.76,1.52c8.67,2.7,16.41,7.38,21.23,12.83
						C931.27,1036.45,932.91,1041,931.82,1044.48z"/>
				</g>
				<g>
					<path d="M869.25,849.37c-3.21,2.47-3.81,7.08-1.34,10.29c1.45,1.88,3.62,2.86,5.82,2.86c1.56,0,3.13-0.5,4.47-1.52
						c1.74-1.34,43.02-32.44,75.69-0.56c2.9,2.83,7.54,2.77,10.37-0.13c2.83-2.9,2.77-7.54-0.13-10.37
						C930.79,817.41,887.49,835.34,869.25,849.37z"/>
					<path d="M1130.74,849.37c-18.24-14.03-61.54-31.96-94.88,0.56c-2.9,2.83-2.96,7.47-0.13,10.37c2.83,2.9,7.48,2.96,10.37,0.13
						c32.5-31.7,73.89-0.81,75.7,0.57c1.33,1.02,2.9,1.52,4.46,1.52c2.2,0,4.38-0.99,5.82-2.86
						C1134.56,856.45,1133.96,851.84,1130.74,849.37z"/>
				</g>
				<g>
					<path d="M755.46,823.66c-20.39,12.07-40.26,12.73-40.44,12.73c-4.05,0.09-7.26,3.44-7.18,7.49c0.08,4,3.35,7.18,7.33,7.18
						c0.05,0,0.11,0,0.16,0c0.96-0.02,23.75-0.66,47.6-14.78c17.33-10.25,36.21,7.12,37.07,7.93c2.94,2.78,7.58,2.66,10.36-0.28
						c2.79-2.94,2.67-7.58-0.27-10.37C808.98,832.5,782.39,807.72,755.46,823.66z"/>
					<path d="M1189.89,833.56c-2.94,2.79-3.06,7.43-0.27,10.37c2.79,2.94,7.43,3.05,10.37,0.27c0.19-0.19,19.56-18.28,37.06-7.92
						c23.85,14.12,46.64,14.76,47.6,14.78c0.05,0,0.11,0,0.16,0c3.97,0,7.23-3.17,7.32-7.16c0.1-4.04-3.11-7.4-7.15-7.51
						c-0.2-0.01-20.06-0.66-40.46-12.73C1217.61,807.71,1191.01,832.5,1189.89,833.56z"/>
				</g>
			</g>
		</g>
	</g>
</g>
</svg>
